<svg id="Capa_1" enable-background="new 0 0 512 512" height="512" viewBox="0 0 512 512" width="512" xmlns="http://www.w3.org/2000/svg"><g><path d="m343.708 357.214c26.842-11.438 50.747-27.785 71.052-48.587 40.873-41.875 62.599-97.296 61.176-156.055-.229-9.414-8.081-17.072-17.504-17.072h-14.445c-3.28-9.031-11.946-15.5-22.096-15.5h-14.886c-4.047-17.526-11.116-34.264-21.042-49.5-15.955-24.491-38.37-43.92-64.823-56.188-3.759-1.743-8.217-.109-9.959 3.649-1.743 3.758-.109 8.217 3.648 9.959 7.478 3.468 14.547 7.565 21.172 12.197v114.883c0 44.112-35.888 80-80 80s-80-35.888-80-80v-114.823c22.692-15.859 50.276-25.177 80-25.177 9.354 0 18.705.928 27.792 2.757 4.068.82 8.017-1.812 8.833-5.873.817-4.061-1.812-8.015-5.872-8.833-10.06-2.024-20.407-3.051-30.753-3.051-73.434 0-135.105 51.333-151.015 120h-14.875c-10.15 0-18.816 6.469-22.096 15.5h-14.445c-9.423 0-17.274 7.659-17.504 17.073-.868 35.834 6.688 70.034 22.458 101.648 14.978 30.026 37.229 56.605 64.351 76.863 1.347 1.006 2.921 1.492 4.482 1.492 2.285 0 4.542-1.041 6.015-3.012 2.479-3.318 1.798-8.018-1.521-10.497-52.942-39.545-82.39-100.098-80.789-166.129.032-1.343 1.157-2.437 2.508-2.437h13.041c-2.601 53.867 20.671 107.087 60.374 143.868 35.246 32.65 81.066 50.631 129.016 50.631 53.78 0 105.302-23.022 141.355-63.163 2.768-3.082 2.513-7.824-.568-10.591-3.082-2.769-7.823-2.514-10.592.568-33.212 36.978-80.667 58.186-130.195 58.186-83.663 0-155.481-60.367-171.606-140.706 1.831.459 3.745.706 5.716.706h14.875c15.909 68.667 77.58 120 151.015 120s135.105-51.333 151.015-120h14.875c1.985 0 3.912-.25 5.754-.715-3.879 19.574-11.081 38.194-21.515 55.562-2.134 3.551-.984 8.158 2.566 10.292 1.209.727 2.54 1.072 3.855 1.072 2.546 0 5.029-1.297 6.436-3.638 18.331-30.17 28.107-66.445 26.403-102.072h13.041c1.351 0 2.476 1.093 2.508 2.436 1.325 54.684-18.888 106.255-56.914 145.214-38.718 39.78-92.166 61.989-148.024 61.85-33.306 0-66.335-7.962-95.517-23.024-3.679-1.898-8.205-.458-10.104 3.225-1.9 3.681-.457 8.205 3.224 10.104 21 10.84 43.854 18.232 67.397 21.936v49.758c-.742.02-49.84-.04-50.772.021-36.837.449-66.669 30.538-66.669 67.479 0 12.407 10.094 22.5 22.5 22.5h259.883c12.406 0 22.5-10.093 22.5-22.5 0-36.921-29.801-66.997-66.61-67.477-1.689-.068-49.536.002-50.832-.023v-49.703c18.122-2.827 35.755-7.859 52.707-15.083zm-253.597-182.214c-4.687 0-8.5-3.813-8.5-8.5v-23c0-4.687 3.813-8.5 8.5-8.5h12.177c-.847 6.549-1.288 13.224-1.288 20s.44 13.451 1.288 20zm165.89 120c-77.196 0-140-62.804-140-140 0-40.561 17.345-77.142 45-102.734v102.734c0 52.383 42.617 95 95 95s95-42.617 95-95v-102.764c28.145 26.125 45 63.263 45 102.764 0 77.196-62.804 140-140 140zm153.712-120c.847-6.549 1.288-13.224 1.288-20 0-6.726-.456-13.401-1.308-20h12.197c4.687 0 8.5 3.813 8.5 8.5v23c0 4.687-3.813 8.5-8.5 8.5zm-76.662 262c-3.338 12.925-15.098 22.5-29.051 22.5h-96c-13.952 0-25.712-9.575-29.051-22.5zm60.391 52.5c0 4.136-3.364 7.5-7.5 7.5h-259.883c-4.136 0-7.5-3.364-7.5-7.5 0-26.461 19.682-48.4 45.172-51.978 3.796 20.996 22.197 36.978 44.269 36.978h96c22.073 0 40.473-15.981 44.27-36.978 25.49 3.578 45.172 25.517 45.172 51.978zm-117.441-67.5h-40v-47.893c6.64.593 13.315.893 20 .893 6.719 0 13.386-.308 20-.887z"/><path d="m278.501 52.5c0-12.407-10.094-22.5-22.5-22.5s-22.5 10.093-22.5 22.5 10.094 22.5 22.5 22.5 22.5-10.093 22.5-22.5zm-30 0c0-4.136 3.364-7.5 7.5-7.5s7.5 3.364 7.5 7.5-3.364 7.5-7.5 7.5-7.5-3.364-7.5-7.5z"/><path d="m237.651 217.372c5.936 1.744 12.109 2.628 18.35 2.628 35.841 0 65-29.159 65-65s-29.159-65-65-65-65 29.159-65 65c0 14.79 5.103 29.267 14.367 40.763 2.601 3.225 7.321 3.734 10.546 1.134 3.226-2.6 3.732-7.321 1.134-10.546-7.227-8.967-11.047-19.808-11.047-31.351 0-27.57 22.43-50 50-50s50 22.43 50 50-22.43 50-50 50c-4.808 0-9.559-.68-14.121-2.02-3.975-1.168-8.143 1.108-9.311 5.082-1.167 3.974 1.107 8.142 5.082 9.31z"/><path d="m291.001 155c0-19.299-15.701-35-35-35s-35 15.701-35 35 15.701 35 35 35 35-15.701 35-35zm-55 0c0-11.028 8.972-20 20-20s20 8.972 20 20-8.972 20-20 20c-11.029 0-20-8.972-20-20z"/></g></svg>